<?xml version="1.0" encoding="utf-8"?>
<!-- Generator: Adobe Illustrator 18.0.0, SVG Export Plug-In . SVG Version: 6.00 Build 0)  -->
<!DOCTYPE svg PUBLIC "-//W3C//DTD SVG 1.1//EN" "http://www.w3.org/Graphics/SVG/1.1/DTD/svg11.dtd">
<svg version="1.1" xmlns="http://www.w3.org/2000/svg" xmlns:xlink="http://www.w3.org/1999/xlink" x="0px" y="0px"
	 viewBox="0 0 32 32" enable-background="new 0 0 32 32" xml:space="preserve">
<g id="Layer_2">
</g>
<g id="Layer_1">
	<path fill-rule="evenodd" clip-rule="evenodd" fill="#985AA3" d="M0,16C0,7.2,7.2,0,16,0s16,7.2,16,16s-7.2,16-16,16S0,24.8,0,16z
		 M8.1,19.8l3.1,1.9V12l-3.1,0.8V19.8z M12,10.3h8.7l1.5,0.5C21.1,9.4,19.9,7.2,17,7V5.2h-1.5V7c-3,0.1-4.1,2.4-5.3,3.7L12,10.3z
		 M21.1,12v9.9l3.2-2l0,0v-7L21.1,12z M19.7,22.5h-7.1V11.6h7.1V22.5z M14.9,13.1l1.2,2.3l1.2-2.3H14.9z M14.1,19.3l1.2-2.3
		l-1.2-2.2V19.3z M17.4,21l-1.2-2.3L15,21H17.4z M18.2,14.7L17,17.1l1.2,2.3V14.7z M20.3,23.9h-8.1l-4.1-2.5l0,0v3.3v0l1.5,1v-1.7
		l1.6,1v1.7h1.5v-1.4h6.9v1.4h1.5v-1.6l1.7-1v1.6l1.5-1v-3.3L20.3,23.9z"/>
</g>
</svg>
