<?xml version="1.0" encoding="utf-8"?>
<!-- Generator: Adobe Illustrator 18.1.1, SVG Export Plug-In . SVG Version: 6.00 Build 0)  -->
<svg version="1.1" id="Layer_1" xmlns="http://www.w3.org/2000/svg" xmlns:xlink="http://www.w3.org/1999/xlink" x="0px" y="0px"
	 viewBox="0 0 136.2 160" enable-background="new 0 0 136.2 160" xml:space="preserve">
<path fill="#FFFFFF" d="M104.4,142.5l31.8-19.3v8.5h0v8l-4,2.5v-8.1l-27.8,17V142.5z M136.2,115v4.1v0.1h0l0,0l-16.1,9.8v0l-5.5,3.4
	h0l-2.5,1.5h0l-3.7,2.2l0,0l-4,2.4v-0.1v0v-4v-5.1v-5.3v-9.1v-5.3v-9.1v-5.3v-9.1v-5.3v-9.1V66v-9.1v-5.3v-8.3l0.8,0.2h0l1,0.3
	l6,1.7l2.6,0.7h0l4.4,1.2l2.9,0.8l3.3,0.9h0l1.6,0.4l6.3,1.8l0,0l2.6,0.7l0.4,0.1v0v4.1V63v4.1v6.8v4.1v6.8V89v6.8v4.2v6.8v4.1
	L136.2,115L136.2,115z M118.3,56.6c2.2,2.4,3.2,3.6,5.4,5.8c2.2-1.7,3.2-2.5,5.4-4c-2.1-2.2-3.2-3.3-5.2-5.6l-0.3-0.1
	C121.5,54.1,120.4,54.9,118.3,56.6z M111.5,103.3C111.5,103.3,111.5,103.3,111.5,103.3c2.2,1.7,3.2,2.5,5.4,4
	c2.2-2.6,3.2-3.9,5.4-6.4c0,0,0,0,0,0c0,0,0,0,0,0c0,0,0,0,0,0c0,0,0,0,0,0c-2.2-1.5-3.2-2.3-5.4-4
	C114.8,99.4,113.7,100.6,111.5,103.3C111.5,103.3,111.5,103.3,111.5,103.3C111.5,103.3,111.5,103.3,111.5,103.3
	C111.5,103.3,111.5,103.3,111.5,103.3z M116.9,70.7c-2.2,2-3.2,3-5.4,5.2c2.2,2.2,3.2,3.2,5.4,5.2c2.2-2.2,3.2-3.2,5.4-5.2
	C120.2,74,119.1,72.9,116.9,70.7z M116.9,68c2.2-1.9,3.2-2.8,5.4-4.6c-2.2-2.2-3.2-3.4-5.4-5.8c-2.2,1.7-3.2,2.7-5.4,4.6
	C113.7,64.7,114.8,65.8,116.9,68z M116.9,83.8c-2.2,2.2-3.2,3.4-5.4,5.8c2.2,1.9,3.2,2.9,5.4,4.6c2.2-2.4,3.2-3.6,5.4-5.8
	C120.2,86.7,119.1,85.8,116.9,83.8z M116.9,110c-2.2,2.7-3.2,4.1-5.4,7c2.2,1.5,3.2,2.1,5.4,3.4c2.2-2.9,3.2-4.3,5.4-7
	C120.2,112.1,119.1,111.4,116.9,110z M123.7,111.7c2.2-2.6,3.2-3.9,5.4-6.4c-2.2-1.3-3.2-1.9-5.4-3.4c-2.2,2.5-3.2,3.7-5.4,6.4
	C120.5,109.7,121.6,110.4,123.7,111.7z M123.7,99.3c2.2-2.4,3.2-3.6,5.4-5.8c-2.2-1.5-3.2-2.3-5.4-4c-2.2,2.2-3.2,3.4-5.4,5.8
	C120.5,97,121.6,97.8,123.7,99.3z M123.7,87c2.2-2.2,3.2-3.2,5.4-5.2c-2.2-1.7-3.2-2.7-5.4-4.6c-2.2,2-3.2,3-5.4,5.2
	C120.5,84.3,121.6,85.3,123.7,87z M123.7,74.7c2.2-1.9,3.2-2.8,5.4-4.6c-2.2-2-3.2-3-5.4-5.2c-2.2,1.7-3.2,2.7-5.4,4.6
	C120.5,71.7,121.6,72.7,123.7,74.7z M112.3,49.5c1.7,2,2.7,3.3,4.6,5.4c1.7-1.3,2.7-2.1,4-3L112.3,49.5z M108.4,58.7
	c0.5,0.6,1.1,1.2,1.7,2c2.2-1.9,3.2-2.8,5.4-4.6c-2.2-2.5-3.2-3.7-5.4-6.4c-0.6,0.5-1.2,1-1.7,1.4V58.7z M108.4,72.7
	c0.5,0.5,1.1,1.1,1.7,1.8c2.2-2.2,3.2-3.2,5.4-5.2c-2.2-2.2-3.2-3.4-5.4-5.8c-0.6,0.6-1.2,1.1-1.7,1.6V72.7z M108.4,86.7
	c0.5,0.5,1.1,1,1.7,1.6c2.2-2.4,3.2-3.6,5.4-5.8c-2.2-2-3.2-3-5.4-5.2c-0.6,0.7-1.2,1.2-1.7,1.8V86.7z M108.4,100.8
	c0.5,0.4,1.1,0.9,1.7,1.4c2.2-2.6,3.2-3.9,5.4-6.4c-2.2-1.7-3.2-2.7-5.4-4.6c-0.6,0.7-1.2,1.4-1.7,1.9V100.8z M108.4,114.8
	c0.5,0.4,1.1,0.8,1.7,1.2c2.2-2.9,3.2-4.3,5.4-7c-2.2-1.5-3.2-2.3-5.4-4c-0.6,0.8-1.2,1.5-1.7,2.1V114.8z M108.5,131.8
	c0,0-0.1-0.1-0.1-0.1v0.2L108.5,131.8z M115.5,122.3c-2.2-1.3-3.2-1.9-5.4-3.4c-0.6,0.9-1.2,1.6-1.7,2.3v7.6c0.5,0.3,1.1,0.6,1.7,1
	C112.3,126.7,113.4,125.2,115.5,122.3z M120.1,124.8c-1-0.5-1.9-1-3.2-1.7c-1.9,2.6-3,4-4.6,6.5L120.1,124.8z M129.1,117
	c-2.2-1-3.2-1.6-5.4-2.8c-2.2,2.7-3.2,4.1-5.4,7c1.7,0.9,2.7,1.5,4.1,2.2l3.2-1.9C126.8,120,127.7,118.8,129.1,117z M131.3,118
	c-0.2-0.1-0.5-0.2-0.8-0.3c-0.5,0.6-0.9,1.1-1.3,1.6L131.3,118z M132.2,107c-0.5-0.3-1-0.6-1.6-0.9c-2.2,2.5-3.2,3.7-5.4,6.4
	c2.2,1.2,3.2,1.8,5.4,2.8c0.6-0.8,1.1-1.4,1.6-2V107z M132.2,95.6c-0.5-0.3-1-0.7-1.6-1.1c-2.2,2.2-3.2,3.4-5.4,5.8c0,0,0,0,0,0
	c0,0,0,0,0,0c0,0,0,0,0,0c0,0,0,0,0,0c2.2,1.5,3.2,2.1,5.4,3.4c0.6-0.7,1.1-1.3,1.6-1.8V95.6z M132.2,84.2c-0.5-0.4-1-0.8-1.6-1.3
	c-2.2,2-3.2,3-5.4,5.2c2.2,1.7,3.2,2.5,5.4,4c0.6-0.6,1.1-1.1,1.6-1.6V84.2z M132.2,72.8c-0.5-0.4-1-0.9-1.6-1.4
	c-2.2,1.7-3.2,2.7-5.4,4.6c2.2,1.9,3.2,2.9,5.4,4.6c0.6-0.5,1.1-1,1.6-1.4V72.8z M132.2,61.4c-0.5-0.5-1-1-1.6-1.6
	c-2.2,1.5-3.2,2.3-5.4,4c2.2,2.2,3.2,3.2,5.4,5.2c0.6-0.5,1.1-0.9,1.6-1.3V61.4z M132.2,55.1l-5.2-1.5c1.2,1.3,2.1,2.3,3.6,3.8
	c0.6-0.4,1.1-0.8,1.6-1.1V55.1z M91.2,21.3c1.3,1.8,2.5,3.8,3.6,5.6c1.6,2.7,3.1,5.3,5.1,7.6c2.1,2.4,5,4.3,8.4,5.7l18.3,5.3
	c-13.3-7-21-36.3-52.2-37.8C81.3,10.7,86.9,15.3,91.2,21.3z M100.3,142.5H35.8v8.8v0h64.5v8.7h4v-8.7h-4V142.5z M47.6,23.3
	c-1.2,1.7-2.3,3.6-3.4,5.4c-1.6,2.7-3.3,5.6-5.5,8.1c-0.9,1-1.8,1.9-2.9,2.7h32.2h0h32.1c-1.1-0.8-2-1.7-2.9-2.7
	c-2.2-2.5-3.9-5.3-5.5-8.1c-1.1-1.8-2.2-3.7-3.4-5.4c-4.6-6.4-10.7-11-18.3-13.8V7V0h-2h0h-1.9h0v9.5h0
	C58.5,12.3,52.2,16.9,47.6,23.3z M38.9,43.2L38.9,43.2l4.2,0l0,0h2.8l0,0h3.8l0,0h2.8l0,0h4.2l0,0h2.8l0,0h3.8l0,0h2.8l0,0h4.2l0,0
	h2.8l0,0h3.8l0,0h2.8l0,0h4.2l0,0h2.8l0,0h3.8l0,0h2.8l0,0h4.2l0,0h2.8v0v3v1.2v3v7.4v3v1.2v3v7.4v3v1.2v3v7.4v3v1.2v3v7.4v3v1.2v3
	v7.4v3v1.2v3v7.4v3v0.7v0.5v3v0.6H35.8v-0.8v-3v-0.2v-0.4v-3v-8v-3v-0.6v-3v-8v-3v-0.6v-3v-8v-3v-0.6v-3v-8v-3v-0.6v-3v-8v-3V61v-3
	v-8v-3v-0.6v-3v-0.2h0.2l0,0H38.9z M49.2,105.1L49.2,105.1l5.4,5.8l5.4-5.8l0,0l0,0l0,0l0,0l-5.4-5.8L49.2,105.1L49.2,105.1
	L49.2,105.1L49.2,105.1z M87.2,105.1L87.2,105.1l-5.4-5.8l-5.4,5.8l0,0l0,0l0,0l0,0l5.4,5.8L87.2,105.1L87.2,105.1L87.2,105.1
	L87.2,105.1z M73.6,105.1L73.6,105.1L73.6,105.1L73.6,105.1l-5.4-5.8l-5.4,5.8l0,0l0,0l0,0l0,0l5.4,5.8L73.6,105.1L73.6,105.1z
	 M61.4,92L56,97.8l5.4,5.8l5.4-5.8L61.4,92z M68.2,96.3l5.4-5.8l-5.4-5.8l-5.4,5.8L68.2,96.3z M75,103.6l5.4-5.8L75,92l-5.4,5.8
	L75,103.6z M81.8,96.3l5.4-5.8l-5.4-5.8l-5.4,5.8L81.8,96.3z M81.8,81.7l5.4-5.8l-5.4-5.8l-5.4,5.8L81.8,81.7z M75,77.4l-5.4,5.8
	L75,89l5.4-5.8L75,77.4z M73.6,75.9l-5.4-5.8l-5.4,5.8l5.4,5.8L73.6,75.9z M61.4,77.4L56,83.2l5.4,5.8l5.4-5.8L61.4,77.4z M60,75.9
	l-5.4-5.8l-5.4,5.8l5.4,5.8L60,75.9z M54.6,84.7l-5.4,5.8l5.4,5.8l5.4-5.8L54.6,84.7z M54.6,113.9l-5.4,5.8l5.4,5.8l5.4-5.8
	L54.6,113.9z M61.4,118.2l5.4-5.8l-5.4-5.8l-5.4,5.8L61.4,118.2z M62.8,119.7l5.4,5.8l5.4-5.8l-5.4-5.8L62.8,119.7z M75,118.2
	l5.4-5.8l-5.4-5.8l-5.4,5.8L75,118.2z M76.4,119.7l5.4,5.8l5.4-5.8l-5.4-5.8L76.4,119.7z M88.6,118.2l5.4-5.8l-5.4-5.8l-5.4,5.8
	L88.6,118.2z M88.6,103.6l5.4-5.8L88.6,92l-5.4,5.8L88.6,103.6z M88.6,89l5.4-5.8l-5.4-5.8l-5.4,5.8L88.6,89z M88.6,74.4l5.4-5.8
	l-5.4-5.8l-5.4,5.8L88.6,74.4z M87.2,61.3l-5.4-5.8l-5.4,5.8l5.4,5.8L87.2,61.3z M75,62.8l-5.4,5.8l5.4,5.8l5.4-5.8L75,62.8z
	 M73.6,61.3l-5.4-5.8l-5.4,5.8l5.4,5.8L73.6,61.3z M61.4,62.8L56,68.6l5.4,5.8l5.4-5.8L61.4,62.8z M60,61.3l-5.4-5.8l-5.4,5.8
	l5.4,5.8L60,61.3z M47.8,62.8l-5.4,5.8l5.4,5.8l5.4-5.8L47.8,62.8z M47.8,77.4l-5.4,5.8l5.4,5.8l5.4-5.8L47.8,77.4z M47.8,92
	l-5.4,5.8l5.4,5.8l5.4-5.8L47.8,92z M47.8,106.6l-5.4,5.8l5.4,5.8l5.4-5.8L47.8,106.6z M47.8,121.2l-5.4,5.8l5.4,5.8l5.4-5.8
	L47.8,121.2z M60,134.2l-5.4-5.8l-5.4,5.8l0.1,0.1L60,134.2L60,134.2z M61.4,132.7l5.4-5.8l-5.4-5.8l-5.4,5.8L61.4,132.7z
	 M73.6,134.2l-5.4-5.8l-5.4,5.8l0.1,0.1L73.6,134.2L73.6,134.2z M75,132.7l5.4-5.8l-5.4-5.8l-5.4,5.8L75,132.7z M87.2,134.2
	l-5.4-5.8l-5.4,5.8l0.1,0.1L87.2,134.2L87.2,134.2z M88.6,132.7l5.4-5.8l-5.4-5.8l-5.4,5.8L88.6,132.7z M96.3,129.4l-0.9-0.9
	l-5.4,5.8l0.1,0.1h6.2V129.4z M96.3,114.8l-0.9-0.9l-5.4,5.8l5.4,5.8l0.9-0.9V114.8z M96.3,100.2l-0.9-0.9L90,105l0,0l0,0l0,0l0,0
	l5.4,5.8l0.9-0.9V100.2z M96.3,85.6l-0.9-0.9L90,90.5l5.4,5.8l0.9-0.9V85.6z M96.3,71l-0.9-0.9L90,75.9l5.4,5.8l0.9-0.9V71z
	 M96.3,56.5l-0.9-0.9L90,61.3l5.4,5.8l0.9-0.9V56.5z M90.5,47.2l5,5.3l0.9-0.9v-4.4H90.5z M88.6,48.2L83.2,54l5.4,5.8L94,54
	L88.6,48.2z M76.8,47.2l5,5.3l5-5.3H76.8z M75,48.2L69.6,54l5.4,5.8l5.4-5.8L75,48.2z M63.2,47.2l5,5.3l5-5.3H63.2z M61.4,48.2
	L56,54l5.4,5.8l5.4-5.8L61.4,48.2z M49.6,47.2l5,5.3l5-5.3H49.6z M47.8,48.2L42.4,54l5.4,5.8l5.4-5.8L47.8,48.2z M39.8,51.3l1.1,1.2
	l5-5.3h-6.1V51.3z M39.8,65.9l1.1,1.2l5.4-5.8L41,55.5l-1.1,1.2V65.9z M39.8,80.5l1.1,1.2l5.4-5.8L41,70.1l-1.1,1.2V80.5z
	 M39.8,95.1l1.1,1.2l5.4-5.8L41,84.7l-1.1,1.2V95.1z M39.8,109.7l1.1,1.2l5.4-5.8l0,0l0,0l0,0l0,0L41,99.3l-1.1,1.2V109.7z
	 M39.8,124.2l1.1,1.2l5.4-5.8l-5.4-5.8l-1.1,1.2V124.2z M39.8,134.3h6.5l0.1-0.1l-5.4-5.8l-1.1,1.2V134.3z M31.8,142.5L0.1,123.3
	l0,8.7h0v8l4,2.5v-8.1l27.8,17v0h0v8.5h4v-8.7h-4V142.5z M36.1,34.5c2-2.3,3.5-4.8,5.1-7.6c1.1-1.9,2.3-3.8,3.6-5.6
	c4.3-6,9.9-10.6,16.7-13.7c-31,1.6-38.7,30.8-52,37.8l17.7-5.1C30.8,39,33.9,37,36.1,34.5z M0.1,119.2L0.1,119.2L0,119.1V115l0.1,0
	v-4.2v-4.1v-6.8v-4.2V89v-4.1v-6.8v-4.1v-6.8V63v-6.8V52v0l0,0c0,0,0,0,0,0L3,51.2l5.2-1.5l2.7-0.8h0l3.3-0.9l2.9-0.8v0l4.4-1.2
	l2.7-0.8l4-1.1l2.9-0.8l0,0l0.8-0.2v8.3v5.3V66v5.3v9.1v5.3v9.1v5.3v9.1v5.3v9.1v5.3v9.1v0.1l-0.1,0v0.1l-3.9-2.4l0,0l-1.6-1
	l-7.1-4.3l-2.9-1.7l0,0l-6.3-3.8l0,0l-5.7-3.4L0.1,119.2L0.1,119.2z M7,119.3c-0.4-0.5-0.8-1-1.3-1.6c-0.3,0.1-0.6,0.2-0.8,0.4
	L7,119.3z M13.7,123.4c1.4-0.7,2.5-1.2,4.2-2.2c-2.2-2.9-3.2-4.3-5.4-7c-2.2,1.2-3.2,1.8-5.4,2.8c1.4,1.8,2.4,3,3.5,4.5L13.7,123.4z
	 M24.7,103.3C24.7,103.3,24.7,103.3,24.7,103.3c-2.2-2.6-3.2-3.9-5.4-6.4c-2.2,1.7-3.2,2.5-5.4,4c0,0,0,0,0,0c0,0,0,0,0,0
	c0,0,0,0,0,0c0,0,0,0,0,0c2.2,2.5,3.2,3.7,5.4,6.4C21.5,105.8,22.5,105,24.7,103.3C24.7,103.3,24.7,103.3,24.7,103.3
	C24.7,103.3,24.7,103.3,24.7,103.3C24.7,103.3,24.7,103.3,24.7,103.3z M19.3,110c-2.2,1.5-3.2,2.1-5.4,3.4c2.2,2.7,3.2,4.1,5.4,7
	c2.2-1.3,3.2-1.9,5.4-3.4C22.6,114.1,21.5,112.7,19.3,110z M19.3,94.2c2.2-1.7,3.2-2.7,5.4-4.6c-2.2-2.4-3.2-3.6-5.4-5.8
	c-2.2,1.9-3.2,2.9-5.4,4.6C16.1,90.6,17.1,91.8,19.3,94.2z M19.3,81.1c2.2-2,3.2-3,5.4-5.2c-2.2-2.2-3.2-3.2-5.4-5.2
	c-2.2,2.2-3.2,3.2-5.4,5.2C16.1,77.9,17.1,79,19.3,81.1z M19.3,68c2.2-2.2,3.2-3.4,5.4-5.8c-2.2-1.9-3.2-2.8-5.4-4.6
	c-2.2,2.4-3.2,3.6-5.4,5.8C16.1,65.2,17.1,66.1,19.3,68z M12.5,64.9c-2.2,2.2-3.2,3.2-5.4,5.2c2.2,1.7,3.2,2.7,5.4,4.6
	c2.2-2,3.2-3,5.4-5.2C15.7,67.6,14.7,66.6,12.5,64.9z M12.5,77.2c-2.2,1.9-3.2,2.9-5.4,4.6c2.2,2,3.2,3,5.4,5.2
	c2.2-1.7,3.2-2.7,5.4-4.6C15.7,80.2,14.7,79.2,12.5,77.2z M12.5,89.5c-2.2,1.7-3.2,2.5-5.4,4c2.2,2.2,3.2,3.4,5.4,5.8
	c2.2-1.5,3.2-2.3,5.4-4C15.7,92.9,14.7,91.8,12.5,89.5z M12.5,101.9c-2.2,1.5-3.2,2.1-5.4,3.4c2.2,2.5,3.2,3.7,5.4,6.4
	c2.2-1.3,3.2-1.9,5.4-3.4C15.7,105.6,14.7,104.3,12.5,101.9z M24,129.6c-1.7-2.4-2.8-3.9-4.7-6.5c-1.3,0.7-2.2,1.2-3.2,1.7L24,129.6
	z M27.8,121.2c-0.5-0.7-1.1-1.4-1.7-2.3c-2.2,1.5-3.2,2.1-5.4,3.4c2.2,2.9,3.2,4.5,5.4,7.6c0.6-0.4,1.2-0.7,1.7-1V121.2z
	 M27.8,107.2c-0.5-0.6-1.1-1.3-1.7-2.1c-2.2,1.7-3.2,2.5-5.4,4c2.2,2.7,3.2,4.1,5.4,7c0.6-0.4,1.2-0.8,1.7-1.2V107.2z M27.8,93.1
	c-0.5-0.6-1.1-1.2-1.7-1.9c-2.2,1.9-3.2,2.9-5.4,4.6c2.2,2.5,3.2,3.7,5.4,6.4c0.6-0.5,1.2-1,1.7-1.4V93.1z M27.8,79.1
	c-0.5-0.5-1.1-1.1-1.7-1.8c-2.2,2.2-3.2,3.2-5.4,5.2c2.2,2.2,3.2,3.4,5.4,5.8c0.6-0.6,1.2-1.1,1.7-1.6V79.1z M27.8,65.1
	c-0.5-0.5-1.1-1-1.7-1.6c-2.2,2.4-3.2,3.6-5.4,5.8c2.2,2,3.2,3,5.4,5.2c0.6-0.7,1.2-1.2,1.7-1.8V65.1z M20.7,56.1
	c2.2,1.7,3.2,2.7,5.4,4.6c0.6-0.7,1.2-1.4,1.7-2v-7.6c-0.5-0.4-1.1-0.9-1.7-1.4C24,52.3,22.9,53.6,20.7,56.1z M15.3,52
	c1.4,1,2.4,1.7,4,3c1.9-2.1,2.9-3.4,4.6-5.4L15.3,52z M7.1,58.4c2.2,1.5,3.2,2.3,5.4,4c2.2-2.2,3.2-3.4,5.4-5.8
	c-2.1-1.6-3.2-2.4-5.3-3.9l-0.3,0.1C10.3,55.1,9.2,56.2,7.1,58.4z M4.1,56.4c0.5,0.3,1,0.7,1.6,1.1c1.5-1.5,2.5-2.6,3.6-3.8
	l-5.2,1.5V56.4z M4.1,67.7c0.5,0.4,1,0.8,1.6,1.3c2.2-2,3.2-3,5.4-5.2c-2.2-1.7-3.2-2.5-5.4-4c-0.6,0.6-1.1,1.1-1.6,1.6V67.7z
	 M4.1,79.1c0.5,0.4,1,0.9,1.6,1.4c2.2-1.7,3.2-2.7,5.4-4.6c-2.2-1.9-3.2-2.8-5.4-4.6c-0.6,0.6-1.1,1-1.6,1.4V79.1z M4.1,90.5
	c0.5,0.5,1,1,1.6,1.6c2.2-1.5,3.2-2.3,5.4-4c-2.2-2.2-3.2-3.2-5.4-5.2c-0.6,0.5-1.1,0.9-1.6,1.3V90.5z M4.1,101.9
	c0.5,0.5,1,1.1,1.6,1.8c2.2-1.3,3.2-1.9,5.4-3.4c0,0,0,0,0,0c0,0,0,0,0,0c0,0,0,0,0,0c0,0,0,0,0,0c-2.2-2.4-3.2-3.6-5.4-5.8
	c-0.6,0.4-1.1,0.8-1.6,1.1V101.9z M4.1,113.3c0.5,0.6,1,1.2,1.6,2c2.2-1,3.2-1.6,5.4-2.8c-2.2-2.6-3.2-3.9-5.4-6.4
	c-0.6,0.3-1.1,0.6-1.6,0.9V113.3z"/>
</svg>
